<?xml version="1.0" encoding="UTF-8"?>
<svg width="32" height="32" version="1.1" viewBox="-5 -10 32 32" xmlns="http://www.w3.org/2000/svg">
 <g stroke-width=".81959">
  <path d="m24.013-2.6393c-0.91644-1.7404-2.6882-2.872-4.6658-2.9772-0.48876-1.7404-1.9518-3.041-3.7525-3.3246-1.7975-0.28688-3.5982 0.49089-4.6111 1.9922-1.0129-1.5013-2.8136-2.2791-4.6111-1.9922-1.8007 0.2837-3.2637 1.5842-3.7525 3.3246-1.8746 0.09563-3.5789 1.1188-4.5307 2.7222-0.95505 1.6033-1.0322 3.5765-0.21222 5.25-1.4824 1.2049-2.164 3.1334-1.7653 4.9918 0.39873 1.8615 1.8103 3.347 3.6593 3.8538-0.49198 2.3492 0.8971 4.6858 3.2123 5.3934-0.00642 0.60564 0.11897 1.2049 0.36014 1.7628 0.67848 1.6098 2.2734 2.6553 4.0354 2.6425 1.4438-0.0066 2.7911-0.71721 3.6046-1.8998 0.81996 1.1698 2.1673 1.868 3.6046 1.868 1.8232 0.02873 3.4695-1.0774 4.1159-2.7668 0.20579-0.51958 0.31191-1.071 0.31512-1.632 1.2155-0.37295 2.2251-1.2208 2.7975-2.3492 0.47911-0.92757 0.62381-1.9891 0.41159-3.0123 1.8489-0.50364 3.2605-1.9891 3.6593-3.8506 0.39874-1.8616-0.28297-3.7868-1.7653-4.9949 0.77173-1.5874 0.72992-3.4458-0.10932-5.0013z"/>
  <path d="m15.011-7.4449c-0.09016-0.00318-0.18031-0.00286-0.2701 0.00163-0.59862 0.029662-1.1837 0.2303-1.6801 0.59289-0.79099 0.57693-1.2573 1.4982-1.2541 2.4736v5.0587c0.5209-0.32514 1.0708-0.59608 1.6463-0.81602 0.37621-0.051001 0.73957 0.15938 0.87784 0.51001 0.14148 0.35064 0.01929 0.75227-0.29261 0.96584-0.49193 0.17213-0.96144 0.39207-1.4084 0.65345-0.28618 0.16894-0.56271 0.35701-0.82317 0.5642v14.035c0.0032 1.53 1.2541 2.7699 2.7975 2.7732 1.164 0.0191 2.2123-0.68853 2.6174-1.7691 0.43409-1.0678 0.15759-2.2887-0.69777-3.0696-0.18007-0.30921-0.13506-0.69808 0.10933-0.96265 0.24762-0.26138 0.63668-0.3347 0.96144-0.1785 0.49201 0.45265 0.87141 1.0105 1.1094 1.632 1.1094-0.41764 1.8843-1.4185 2.0065-2.5851 0.12216-1.1698-0.43092-2.3078-1.4309-2.939-0.34405-0.24546-0.44374-0.71402-0.2283-1.0774 0.10933-0.1785 0.28618-0.30282 0.49198-0.34745 0.20579-0.044628 0.41802-0.00318 0.59487 0.11156 0.61738 0.38883 1.1351 0.92121 1.5049 1.5492 1.3023-0.28691 2.3313-1.275 2.6625-2.5564 0.33446-1.2814-0.08677-2.6393-1.0901-3.5159-0.43735 0.4813-0.95501 0.87977-1.5306 1.1858-0.3826 0.17532-0.83925 0.031881-1.0547-0.32832-0.18007-0.38254-0.03859-0.83833 0.3312-1.0519 1.5659-0.81602 2.4116-2.5469 2.0837-4.2714-0.32474-1.7244-1.7493-3.0346-3.5081-3.229-0.0643 0.82557-0.34728 1.6225-0.82318 2.3014-0.28617 0.22632-0.68491 0.23588-0.98395 0.028691-0.29904-0.20718-0.42444-0.58333-0.30869-0.9244 0.56593-0.80011 0.71063-1.8201 0.39551-2.7413-0.31832-0.92439-1.0579-1.6448-2.0001-1.9381-0.26409-0.081586-0.535-0.12582-0.80549-0.13547zm3.0081 11.231c0.12556-7.205e-4 0.25342 0.026292 0.373 0.086064 0.35693 0.21037 0.50162 0.65027 0.33763 1.0296-0.34079 0.61202-0.8489 1.1188-1.4663 1.4599 0.16724 0.87657-0.09004 1.7819-0.69134 2.4481-0.30229 0.29963-0.78459 0.31876-1.1094 0.047811-0.30869-0.29965-0.3312-0.78414-0.05145-1.1093 0.21865-0.23906 0.33762-0.55145 0.3312-0.8734-0.55309 0.060565-1.1094 0.019128-1.6463-0.12113-0.30869-0.19128-0.4566-0.55783-0.36335-0.90527 0.09325-0.34745 0.40194-0.59289 0.76529-0.60564 1.0772 0.32192 2.238-0.11791 2.8232-1.0678 0.15478-0.24763 0.42154-0.3873 0.69777-0.38888z" fill="#fff"/>
  <path d="m7.0801-7.5246c-1.2876 1.821e-4 -2.4675 0.80366-2.9036 2.0448 0.58198 0.13388 1.1383 0.36019 1.6463 0.66939 0.24759 0.076502 0.44374 0.26776 0.53056 0.5132 0.08361 0.24225 0.048238 0.5132-0.099681 0.72677-0.1447 0.21356-0.38586 0.34426-0.64632 0.35382-0.26045 0.00956-0.51127-0.10201-0.67526-0.30282-1.5113-0.8893-3.4278-0.70447-4.7365 0.45901-1.3087 1.1602-1.7074 3.0282-0.98395 4.6156 0.59804-0.2327 1.2348-0.35383 1.8779-0.3602 0.2476-0.070121 0.5177-0.02231 0.72349 0.13069 0.209 0.15619 0.3312 0.39527 0.3312 0.65346s-0.12219 0.49726-0.3312 0.65345c-0.20579 0.153-0.4759 0.20082-0.72349 0.13069-0.63343-0.0031781-1.2573 0.16575-1.8039 0.4877-1.2604 0.72993-1.9422 2.1516-1.7171 3.5828 0.22827 1.428 1.3119 2.5756 2.7396 2.888 0.36977-0.62793 0.8907-1.1603 1.5145-1.5492 0.36978-0.21357 0.83925-0.10838 1.0868 0.23588 0.21222 0.36975 0.1029 0.83833-0.2476 1.0774-0.99684 0.63438-1.5499 1.7723-1.4245 2.9421 0.12216 1.1667 0.90031 2.1676 2.0097 2.5819 0.20903-0.52282 0.52092-1.0009 0.91321-1.4121 0.11576-0.22951 0.33763-0.39526 0.59487-0.43989 0.25724-0.04462 0.52091 0.03506 0.71063 0.21357 0.18972 0.18169 0.27975 0.43989 0.2476 0.69489-0.035372 0.25818-0.18972 0.48452-0.41802 0.60883-0.77816 0.81284-0.98716 2.005-0.53378 3.0282 0.43085 1.0359 1.4534 1.7053 2.5821 1.6894 0.74925 0 1.4663-0.29645 1.9936-0.81921 0.53056-0.52601 0.82638-1.2368 0.82317-1.9795v-4.1279c-0.18974-0.12432-0.70102-0.24545-1.6463 0.25182-0.17364 0.18807-0.42766 0.28688-0.68812 0.26138-0.25724-0.0255-0.48876-0.16894-0.6206-0.38888-0.13506-0.21675-0.16078-0.4877-0.06431-0.72677 0.096468-0.23588 0.29904-0.41757 0.54985-0.48451 0.73954-0.44308 1.6142-0.62158 2.4695-0.49726v-6.5282c-0.04502-0.65029-0.29261-1.2718-0.70742-1.7787-0.49514-0.63429-1.1351-1.1443-1.8682-1.4854-0.27654-0.0095637-0.52735-0.15619-0.67204-0.38888-0.1447-0.22951-0.16077-0.51958-0.045018-0.76502 0.11254-0.24864 0.34406-0.42395 0.61738-0.46857 0.2701-0.041437 0.54664 0.051001 0.73314 0.25182 0.7267 0.33473 1.3859 0.80008 1.9422 1.3707v-5.4826c0.03861-1.5045-1.0322-2.8114-2.5242-3.0824-0.1865-0.033864-0.37234-0.049434-0.55629-0.04941zm-3.5162 11.144c0.19142-0.00882 0.38104 0.047011 0.53538 0.16416 0.20579 0.15619 0.32798 0.40163 0.32477 0.65983 0.083602 0.26456 0.21866 0.51001 0.39551 0.72677 0.19937-0.62156 0.63989-1.1412 1.2251-1.444l0.064314 0.041438c0.36013-0.063756 0.72028 0.11794 0.88105 0.43989 0.16077 0.32514 0.09003 0.71721-0.18007 0.96265-0.35049 0.18486-0.57558 0.5387-0.6013 0.93077 0.18972 0.063756 0.38586 0.10519 0.58522 0.13069 0.3312 0.14983 0.52413 0.49726 0.47268 0.85746-0.04823 0.35701-0.33441 0.6407-0.69455 0.69171-1.6882-0.18173-3.1158-1.3133-3.6625-2.9039-0.14149-0.21675-0.17043-0.4877-0.080391-0.72996 0.090039-0.24226 0.29261-0.42713 0.54342-0.49726 0.062701-0.017528 0.12752-0.027345 0.19132-0.030282z" fill="#fff"/>
  <path d="m56.013-2.6393c-0.91644-1.7404-2.6882-2.872-4.6658-2.9772-0.48876-1.7404-1.9518-3.041-3.7525-3.3246-1.7975-0.28688-3.5982 0.49089-4.6111 1.9922-1.0129-1.5013-2.8136-2.2791-4.6111-1.9922-1.8007 0.2837-3.2637 1.5842-3.7525 3.3246-1.8746 0.09563-3.5789 1.1188-4.5307 2.7222-0.95505 1.6033-1.0322 3.5765-0.21222 5.25-1.4824 1.2049-2.164 3.1334-1.7653 4.9918 0.39873 1.8615 1.8103 3.347 3.6593 3.8538-0.49198 2.3492 0.8971 4.6858 3.2123 5.3934-0.0064 0.60564 0.11897 1.2049 0.36014 1.7628 0.67848 1.6098 2.2734 2.6553 4.0354 2.6425 1.4438-0.0066 2.7911-0.71721 3.6046-1.8998 0.81996 1.1698 2.1673 1.868 3.6046 1.868 1.8232 0.02873 3.4695-1.0774 4.1159-2.7668 0.20579-0.51958 0.31191-1.071 0.31512-1.632 1.2155-0.37295 2.2251-1.2208 2.7975-2.3492 0.47911-0.92757 0.62381-1.9891 0.41159-3.0123 1.8489-0.50364 3.2605-1.9891 3.6593-3.8506 0.39874-1.8616-0.28297-3.7868-1.7653-4.9949 0.77173-1.5874 0.72992-3.4458-0.10932-5.0013z"/>
  <path d="m47.011-7.4449c-0.09016-0.00318-0.18031-0.00286-0.2701 0.00163-0.59862 0.029662-1.1837 0.2303-1.6801 0.59289-0.79099 0.57693-1.2573 1.4982-1.2541 2.4736v5.0587c0.5209-0.32514 1.0708-0.59608 1.6463-0.81602 0.37621-0.051001 0.73957 0.15938 0.87784 0.51001 0.14148 0.35064 0.01929 0.75227-0.29261 0.96584-0.49193 0.17213-0.96144 0.39207-1.4084 0.65345-0.28618 0.16894-0.56271 0.35701-0.82317 0.5642v14.035c0.0032 1.53 1.2541 2.7699 2.7975 2.7732 1.164 0.0191 2.2123-0.68853 2.6174-1.7691 0.43409-1.0678 0.15759-2.2887-0.69777-3.0696-0.18007-0.30921-0.13506-0.69808 0.10933-0.96265 0.24762-0.26138 0.63668-0.3347 0.96144-0.1785 0.49201 0.45265 0.87141 1.0105 1.1094 1.632 1.1094-0.41764 1.8843-1.4185 2.0065-2.5851 0.12216-1.1698-0.43092-2.3078-1.4309-2.939-0.34405-0.24546-0.44374-0.71402-0.2283-1.0774 0.10933-0.1785 0.28618-0.30282 0.49198-0.34745 0.20579-0.044628 0.41802-0.00318 0.59487 0.11156 0.61738 0.38883 1.1351 0.92121 1.5049 1.5492 1.3023-0.28691 2.3313-1.275 2.6625-2.5564 0.33446-1.2814-0.08677-2.6393-1.0901-3.5159-0.43735 0.4813-0.95501 0.87977-1.5306 1.1858-0.3826 0.17532-0.83925 0.031881-1.0547-0.32832-0.18007-0.38254-0.03859-0.83833 0.3312-1.0519 1.5659-0.81602 2.4116-2.5469 2.0837-4.2714-0.32474-1.7244-1.7493-3.0346-3.5081-3.229-0.0643 0.82557-0.34728 1.6225-0.82318 2.3014-0.28617 0.22632-0.68491 0.23588-0.98395 0.028691-0.29904-0.20718-0.42444-0.58333-0.30869-0.9244 0.56593-0.80011 0.71063-1.8201 0.39551-2.7413-0.31832-0.92439-1.0579-1.6448-2.0001-1.9381-0.26409-0.081586-0.535-0.12582-0.80549-0.13547zm3.0081 11.231c0.12556-7.205e-4 0.25342 0.026292 0.373 0.086064 0.35693 0.21037 0.50162 0.65027 0.33763 1.0296-0.34079 0.61202-0.8489 1.1188-1.4663 1.4599 0.16724 0.87657-0.09004 1.7819-0.69134 2.4481-0.30229 0.29963-0.78459 0.31876-1.1094 0.047811-0.30869-0.29965-0.3312-0.78414-0.05145-1.1093 0.21865-0.23906 0.33762-0.55145 0.3312-0.8734-0.55309 0.060565-1.1094 0.019128-1.6463-0.12113-0.30869-0.19128-0.4566-0.55783-0.36335-0.90527 0.09325-0.34745 0.40194-0.59289 0.76529-0.60564 1.0772 0.32192 2.238-0.11791 2.8232-1.0678 0.15478-0.24763 0.42154-0.3873 0.69777-0.38888z" fill="#faa"/>
  <path d="m39.08-7.5246c-1.2876 1.821e-4 -2.4675 0.80366-2.9036 2.0448 0.58198 0.13388 1.1383 0.36019 1.6463 0.66939 0.24759 0.076502 0.44374 0.26776 0.53056 0.5132 0.08361 0.24225 0.04824 0.5132-0.09968 0.72677-0.1447 0.21356-0.38586 0.34426-0.64632 0.35382-0.26045 0.00956-0.51127-0.10201-0.67526-0.30282-1.5113-0.8893-3.4278-0.70447-4.7365 0.45901-1.3087 1.1602-1.7074 3.0282-0.98395 4.6156 0.59804-0.2327 1.2348-0.35383 1.8779-0.3602 0.2476-0.070121 0.5177-0.02231 0.72349 0.13069 0.209 0.15619 0.3312 0.39527 0.3312 0.65346s-0.12219 0.49726-0.3312 0.65345c-0.20579 0.153-0.4759 0.20082-0.72349 0.13069-0.63343-0.00318-1.2573 0.16575-1.8039 0.4877-1.2604 0.72993-1.9422 2.1516-1.7171 3.5828 0.22827 1.428 1.3119 2.5756 2.7396 2.888 0.36977-0.62793 0.8907-1.1603 1.5145-1.5492 0.36978-0.21357 0.83925-0.10838 1.0868 0.23588 0.21222 0.36975 0.1029 0.83833-0.2476 1.0774-0.99684 0.63438-1.5499 1.7723-1.4245 2.9421 0.12216 1.1667 0.90031 2.1676 2.0097 2.5819 0.20903-0.52282 0.52092-1.0009 0.91321-1.4121 0.11576-0.22951 0.33763-0.39526 0.59487-0.43989 0.25724-0.04462 0.52091 0.03506 0.71063 0.21357 0.18972 0.18169 0.27975 0.43989 0.2476 0.69489-0.03537 0.25818-0.18972 0.48452-0.41802 0.60883-0.77816 0.81284-0.98716 2.005-0.53378 3.0282 0.43085 1.0359 1.4534 1.7053 2.5821 1.6894 0.74925 0 1.4663-0.29645 1.9936-0.81921 0.53056-0.52601 0.82638-1.2368 0.82317-1.9795v-4.1279c-0.18974-0.12432-0.70102-0.24545-1.6463 0.25182-0.17364 0.18807-0.42766 0.28688-0.68812 0.26138-0.25724-0.0255-0.48876-0.16894-0.6206-0.38888-0.13506-0.21675-0.16078-0.4877-0.06431-0.72677 0.09647-0.23588 0.29904-0.41757 0.54986-0.48451 0.73954-0.44308 1.6142-0.62158 2.4695-0.49726v-6.5282c-0.045021-0.65029-0.29261-1.2718-0.70742-1.7787-0.49514-0.63429-1.1351-1.1443-1.8682-1.4854-0.27654-0.0095637-0.52735-0.15619-0.67204-0.38888-0.1447-0.22951-0.16077-0.51958-0.045017-0.76502 0.11254-0.24864 0.34406-0.42395 0.61738-0.46857 0.2701-0.041437 0.54664 0.051001 0.73314 0.25182 0.7267 0.33473 1.3859 0.80008 1.9422 1.3707v-5.4826c0.03861-1.5045-1.0322-2.8114-2.5242-3.0824-0.1865-0.033864-0.37234-0.049434-0.55629-0.04941zm-3.5162 11.144c0.19142-0.00882 0.38104 0.047011 0.53538 0.16416 0.20579 0.15619 0.32798 0.40163 0.32477 0.65983 0.0836 0.26456 0.21866 0.51001 0.39551 0.72677 0.19937-0.62156 0.63989-1.1412 1.2251-1.444l0.06431 0.041438c0.36013-0.063756 0.72028 0.11794 0.88105 0.43989 0.16077 0.32514 0.09003 0.71721-0.18007 0.96265-0.35049 0.18486-0.57558 0.5387-0.6013 0.93077 0.18972 0.063756 0.38586 0.10519 0.58522 0.13069 0.3312 0.14983 0.52413 0.49726 0.47268 0.85746-0.04823 0.35701-0.33442 0.6407-0.69455 0.69171-1.6882-0.18173-3.1158-1.3133-3.6625-2.9039-0.14149-0.21675-0.17043-0.4877-0.080391-0.72996 0.09004-0.24226 0.29261-0.42713 0.54342-0.49726 0.0627-0.017528 0.12752-0.027345 0.19132-0.030282z" fill="#8bcada"/>
  <path d="m-7.9866-2.6393c-0.91644-1.7404-2.6882-2.872-4.6658-2.9772-0.48876-1.7404-1.9518-3.041-3.7525-3.3246-1.7975-0.28688-3.5982 0.49089-4.6111 1.9922-1.0129-1.5013-2.8136-2.2791-4.6111-1.9922-1.8007 0.2837-3.2637 1.5842-3.7525 3.3246-1.8746 0.09563-3.5789 1.1188-4.5307 2.7222-0.95505 1.6033-1.0322 3.5765-0.21222 5.25-1.4824 1.2049-2.164 3.1334-1.7653 4.9918 0.39873 1.8615 1.8103 3.347 3.6593 3.8538-0.49198 2.3492 0.8971 4.6858 3.2123 5.3934-0.0064 0.60564 0.11897 1.2049 0.36014 1.7628 0.67848 1.6098 2.2734 2.6553 4.0354 2.6425 1.4438-0.0066 2.7911-0.71721 3.6046-1.8998 0.81996 1.1698 2.1673 1.868 3.6046 1.868 1.8232 0.02873 3.4695-1.0774 4.1159-2.7668 0.20579-0.51958 0.31191-1.071 0.31512-1.632 1.2155-0.37295 2.2251-1.2208 2.7975-2.3492 0.47911-0.92757 0.62381-1.9891 0.41159-3.0123 1.8489-0.50364 3.2605-1.9891 3.6593-3.8506 0.39874-1.8616-0.28297-3.7868-1.7653-4.9949 0.77173-1.5874 0.72992-3.4458-0.10932-5.0013z"/>
  <path d="m24.013-34.639c-0.91644-1.7404-2.6882-2.872-4.6658-2.9772-0.48876-1.7404-1.9518-3.041-3.7525-3.3246-1.7975-0.28688-3.5982 0.49089-4.6111 1.9922-1.0129-1.5013-2.8136-2.2791-4.6111-1.9922-1.8007 0.2837-3.2637 1.5842-3.7525 3.3246-1.8746 0.09563-3.5789 1.1188-4.5307 2.7222-0.95505 1.6033-1.0322 3.5765-0.21222 5.25-1.4824 1.2049-2.164 3.1334-1.7653 4.9918 0.39873 1.8615 1.8103 3.347 3.6593 3.8538-0.49198 2.3492 0.8971 4.6858 3.2123 5.3934-0.00642 0.60564 0.11897 1.2049 0.36014 1.7628 0.67848 1.6098 2.2734 2.6553 4.0354 2.6425 1.4438-0.0066 2.7911-0.71721 3.6046-1.8998 0.81996 1.1698 2.1673 1.868 3.6046 1.868 1.8232 0.02873 3.4695-1.0774 4.1159-2.7668 0.20579-0.51958 0.31191-1.071 0.31512-1.632 1.2155-0.37295 2.2251-1.2208 2.7975-2.3492 0.47911-0.92757 0.62381-1.9891 0.41159-3.0123 1.8489-0.50364 3.2605-1.9891 3.6593-3.8506 0.39874-1.8616-0.28297-3.7868-1.7653-4.9949 0.77173-1.5874 0.72992-3.4458-0.10932-5.0013z"/>
  <path d="m7.0801-39.525c-1.2876 1.82e-4 -2.4675 0.80366-2.9036 2.0448 0.58198 0.13388 1.1383 0.36019 1.6463 0.66939 0.24759 0.0765 0.44374 0.26776 0.53056 0.5132 0.08361 0.24225 0.048238 0.5132-0.099681 0.72677-0.1447 0.21356-0.38586 0.34426-0.64632 0.35382-0.26045 0.0096-0.51127-0.10201-0.67526-0.30282-1.5113-0.8893-3.4278-0.70447-4.7365 0.45901-1.3087 1.1602-1.7074 3.0282-0.98395 4.6156 0.59804-0.2327 1.2348-0.35383 1.8779-0.3602 0.2476-0.07012 0.5177-0.02231 0.72349 0.13069 0.209 0.15619 0.3312 0.39527 0.3312 0.65346 0 0.25819-0.12219 0.49726-0.3312 0.65346-0.20579 0.153-0.4759 0.20082-0.72349 0.13069-0.63343-0.0032-1.2573 0.16575-1.8039 0.4877-1.2604 0.72993-1.9422 2.1516-1.7171 3.5828 0.22827 1.428 1.3119 2.5756 2.7396 2.888 0.36977-0.62793 0.8907-1.1603 1.5145-1.5492 0.36978-0.21357 0.83925-0.10838 1.0868 0.23588 0.21222 0.36975 0.1029 0.83833-0.2476 1.0774-0.99684 0.63438-1.5499 1.7723-1.4245 2.9421 0.12216 1.1667 0.90031 2.1676 2.0097 2.5819 0.20903-0.52282 0.52092-1.0009 0.91321-1.4121 0.11576-0.22951 0.33763-0.39526 0.59487-0.43989 0.25724-0.04462 0.52091 0.03506 0.71063 0.21357 0.18972 0.18169 0.27975 0.43989 0.2476 0.69489-0.035372 0.25818-0.18972 0.48452-0.41802 0.60883-0.77816 0.81284-0.98716 2.005-0.53378 3.0282 0.43085 1.0359 1.4534 1.7053 2.5821 1.6894 0.74925 0 1.4663-0.29645 1.9936-0.81921 0.53056-0.52601 0.82638-1.2368 0.82317-1.9795v-4.1279c-0.18974-0.12432-0.70102-0.24545-1.6463 0.25182-0.17364 0.18807-0.42766 0.28688-0.68812 0.26138-0.25724-0.0255-0.48876-0.16894-0.6206-0.38888-0.13506-0.21675-0.16078-0.4877-0.06431-0.72677 0.096468-0.23588 0.29904-0.41757 0.54985-0.48451 0.73954-0.44308 1.6142-0.62158 2.4695-0.49726v-6.5282c-0.04502-0.65029-0.29261-1.2718-0.70742-1.7787-0.49514-0.63429-1.1351-1.1443-1.8682-1.4854-0.27654-0.0096-0.52735-0.15619-0.67204-0.38888-0.1447-0.22951-0.16077-0.51958-0.045018-0.76502 0.11254-0.24864 0.34406-0.42395 0.61738-0.46857 0.2701-0.04144 0.54664 0.051 0.73314 0.25182 0.7267 0.33473 1.3859 0.80008 1.9422 1.3707v-5.4826c0.03861-1.5045-1.0322-2.8114-2.5242-3.0824-0.1865-0.03386-0.37234-0.04943-0.55629-0.04941zm-3.5162 11.144c0.19142-0.0088 0.38104 0.04701 0.53538 0.16416 0.20579 0.15619 0.32798 0.40163 0.32477 0.65983 0.083602 0.26456 0.21866 0.51002 0.39551 0.72677 0.19937-0.62156 0.63989-1.1412 1.2251-1.444l0.064314 0.04144c0.36013-0.06376 0.72028 0.11794 0.88105 0.43988 0.16077 0.32514 0.09003 0.71721-0.18007 0.96265-0.35049 0.18486-0.57558 0.5387-0.6013 0.93077 0.18972 0.06376 0.38586 0.10519 0.58522 0.13069 0.3312 0.14983 0.52413 0.49726 0.47268 0.85746-0.04823 0.35701-0.33441 0.6407-0.69455 0.69171-1.6882-0.18173-3.1158-1.3133-3.6625-2.9039-0.14149-0.21675-0.17043-0.4877-0.080391-0.72996 0.090039-0.24226 0.29261-0.42713 0.54342-0.49726 0.062701-0.01753 0.12752-0.02735 0.19132-0.03028z" fill="#fff"/>
  <path d="m24.013 29.361c-0.91644-1.7404-2.6882-2.872-4.6658-2.9772-0.48876-1.7404-1.9518-3.041-3.7525-3.3246-1.7975-0.28688-3.5982 0.49089-4.6111 1.9922-1.0129-1.5013-2.8136-2.2791-4.6111-1.9922-1.8007 0.2837-3.2637 1.5842-3.7525 3.3246-1.8746 0.09563-3.5789 1.1188-4.5307 2.7222-0.95505 1.6033-1.0322 3.5765-0.21222 5.25-1.4824 1.2049-2.164 3.1334-1.7653 4.9918 0.39873 1.8615 1.8103 3.347 3.6593 3.8538-0.49198 2.3492 0.8971 4.6858 3.2123 5.3934-0.00642 0.60564 0.11897 1.2049 0.36014 1.7628 0.67848 1.6098 2.2734 2.6553 4.0354 2.6425 1.4438-0.0066 2.7911-0.71721 3.6046-1.8998 0.81996 1.1698 2.1673 1.868 3.6046 1.868 1.8232 0.02873 3.4695-1.0774 4.1159-2.7668 0.20579-0.51958 0.31191-1.071 0.31512-1.632 1.2155-0.37295 2.2251-1.2208 2.7975-2.3492 0.47911-0.92757 0.62381-1.9891 0.41159-3.0123 1.8489-0.50364 3.2605-1.9891 3.6593-3.8506 0.39874-1.8616-0.28297-3.7868-1.7653-4.9949 0.77173-1.5874 0.72992-3.4458-0.10932-5.0013z"/>
  <path d="m15.011 24.555c-0.09016-0.0032-0.18031-0.0029-0.2701 0.0016-0.59862 0.02966-1.1837 0.2303-1.6801 0.59289-0.79099 0.57693-1.2573 1.4982-1.2541 2.4736v5.0587c0.5209-0.32514 1.0708-0.59608 1.6463-0.81602 0.37621-0.051 0.73957 0.15938 0.87784 0.51001 0.14148 0.35064 0.01929 0.75227-0.29261 0.96584-0.49193 0.17213-0.96144 0.39208-1.4084 0.65346-0.28618 0.16894-0.56271 0.35701-0.82317 0.5642v14.035c0.0032 1.53 1.2541 2.7699 2.7975 2.7732 1.164 0.0191 2.2123-0.68853 2.6174-1.7691 0.43409-1.0678 0.15759-2.2887-0.69777-3.0696-0.18007-0.30921-0.13506-0.69808 0.10933-0.96265 0.24762-0.26138 0.63668-0.3347 0.96144-0.1785 0.49201 0.45265 0.87141 1.0105 1.1094 1.632 1.1094-0.41764 1.8843-1.4185 2.0065-2.5851 0.12216-1.1698-0.43092-2.3078-1.4309-2.939-0.34405-0.24546-0.44374-0.71402-0.2283-1.0774 0.10933-0.1785 0.28618-0.30282 0.49198-0.34745 0.20579-0.04463 0.41802-0.0032 0.59487 0.11156 0.61738 0.38883 1.1351 0.92121 1.5049 1.5492 1.3023-0.28691 2.3313-1.275 2.6625-2.5564 0.33446-1.2814-0.08677-2.6393-1.0901-3.5159-0.43735 0.4813-0.95501 0.87977-1.5306 1.1858-0.3826 0.17532-0.83925 0.03188-1.0547-0.32832-0.18007-0.38254-0.03859-0.83833 0.3312-1.0519 1.5659-0.81602 2.4116-2.5469 2.0837-4.2714-0.32474-1.7244-1.7493-3.0346-3.5081-3.229-0.0643 0.82557-0.34728 1.6225-0.82318 2.3014-0.28617 0.22632-0.68491 0.23588-0.98395 0.02869-0.29904-0.20718-0.42444-0.58333-0.30869-0.9244 0.56593-0.80011 0.71063-1.8201 0.39551-2.7413-0.31832-0.92439-1.0579-1.6448-2.0001-1.938-0.26409-0.08159-0.535-0.12582-0.80549-0.13547zm3.0081 11.231c0.12556-7.2e-4 0.25342 0.02629 0.373 0.08606 0.35693 0.21037 0.50162 0.65027 0.33763 1.0296-0.34079 0.61202-0.8489 1.1188-1.4663 1.4599 0.16724 0.87657-0.09004 1.7819-0.69134 2.4481-0.30229 0.29963-0.78459 0.31876-1.1094 0.04781-0.30869-0.29965-0.3312-0.78414-0.05145-1.1093 0.21865-0.23906 0.33762-0.55145 0.3312-0.8734-0.55309 0.06057-1.1094 0.01913-1.6463-0.12113-0.30869-0.19128-0.4566-0.55783-0.36335-0.90527 0.09325-0.34744 0.40194-0.59289 0.76529-0.60564 1.0772 0.32192 2.238-0.11791 2.8232-1.0678 0.15478-0.24763 0.42154-0.3873 0.69777-0.38888z" fill="#fff"/>
 </g>
</svg>
