<?xml version="1.0" encoding="UTF-8"?>
<!-- Created with Inkscape (http://www.inkscape.org/) -->
<svg width="22" height="22" version="1.1" viewBox="0 0 22 22" xmlns="http://www.w3.org/2000/svg">
 <g stroke-linecap="round" stroke-linejoin="round" stroke-width="1.5172">
  <path d="m3.2908-2.9799e-4c-0.98829 0-1.7899 0.80162-1.7899 1.7899v15.336c0 0.98825 0.80159 1.7899 1.7899 1.7899h9.142l3.0108 3.0108c0.15786 0.15769 0.42754 0.04532 0.42672-0.1778v-2.833h2.8389c0.98829 0 1.7899-0.80162 1.7899-1.7899v-15.336c0-0.98825-0.80159-1.7899-1.7899-1.7899z" stop-color="#000000"/>
  <path d="m3.2908 0.49777h15.418c0.71996 0 1.292 0.57213 1.292 1.292v15.336c0 0.7199-0.57207 1.2891-1.292 1.2891h-15.418c-0.71995 0-1.292-0.56916-1.292-1.2891v-15.336c0-0.7199 0.57208-1.292 1.292-1.292z" fill="#fff" stop-color="#000000"/>
 </g>
</svg>
