<?xml version="1.0" encoding="UTF-8"?>
<!-- Created with Inkscape (http://www.inkscape.org/) -->
<svg width="22" height="22" version="1.1" viewBox="0 0 22 22" xmlns="http://www.w3.org/2000/svg">
 <path class="ColorScheme-Text" d="m11.001 3.4565a3 3 0 0 1 3 3 3 3 0 0 1-3 3 3 3 0 0 1-3-3 3 3 0 0 1 3-3zm0 0.75a2.25 2.25 0 0 0-2.25 2.25 2.25 2.25 0 0 0 2.25 2.25 2.25 2.25 0 0 0 2.25-2.25 2.25 2.25 0 0 0-2.25-2.25zm0 6a6 6 0 0 1 5.9458 5.25h-0.75586a5.25 5.25 0 0 0-5.1899-4.5 5.25 5.25 0 0 0-5.1914 4.5h-0.75586a6 6 0 0 1 5.9473-5.25z" color="#232629"/>
</svg>
